<svg xmlns="http://www.w3.org/2000/svg" width="24" height="25" fill="none"><path stroke="#191919" stroke-linecap="round" stroke-linejoin="round" stroke-width="1.71" d="M16.777 5.335V2.151m1.593 1.592h-3.185m-3.211 3.163c-2.484 1.434-3.29 4.686-1.803 7.263 1.489 2.578 4.708 3.505 7.192 2.07.457-.264 1.137.106.988.622-.58 2.008-1.882 3.784-3.801 4.892-4.036 2.33-9.268.823-11.686-3.365S1.757 8.916 5.794 6.586C7.711 5.478 9.9 5.237 11.93 5.74c.521.129.502.902.044 1.166m8.784 4.798V8.52m1.592 1.592h-3.185"/></svg>