<svg xmlns="http://www.w3.org/2000/svg" xml:space="preserve" viewBox="0 0 500 500"><path d="M311.74 39.886s-78.574-24.379-149.972 23.108C90.371 110.48 59.596 199.849 32.762 271.534s-2.407 142.317 57.417 172.375 94.87-19.691 174.938-25.572 102.594 4.894 165.47-44.388 66.13-159.258 7.097-237.921C378.649 57.365 311.74 39.886 311.74 39.886" style="fill:#92e3a9"/><path d="M311.74 39.886s-78.574-24.379-149.972 23.108C90.371 110.48 59.596 199.849 32.762 271.534s-2.407 142.317 57.417 172.375 94.87-19.691 174.938-25.572 102.594 4.894 165.47-44.388 66.13-159.258 7.097-237.921C378.649 57.365 311.74 39.886 311.74 39.886" style="opacity:.7;fill:#fff"/><g style="opacity:.13"><path d="m252.336 449.443-15.016-55.98-4.326 57.797c-.429 5.734 4.123 10.616 9.873 10.588 6.46-.031 11.142-6.166 9.469-12.405m-79.777-2.17 4.61-56.746-25.983 50.658c-3.252 6.341.088 14.074 6.934 16.054 6.881 1.99 13.859-2.826 14.439-9.966M92.61 415.827c8.697-12.952 22.389-33.779 22.389-33.779l-35.949 18.56c-6.499 3.355-7.677 12.154-2.289 17.1 4.746 4.358 12.257 3.469 15.849-1.881M36.485 206.003c15.298 3.06 39.785 7.71 39.785 7.71L45.334 187.64c-5.593-4.713-14.169-2.424-16.669 4.449-2.203 6.057 1.501 12.65 7.82 13.914m14.892-105.576c9.071 5.191 23.644 13.342 23.644 13.342L60.896 90.637c-2.553-4.182-8.489-4.547-11.536-.71-2.684 3.38-1.73 8.356 2.017 10.5m12.121 249.554 36.197-22.267-42.351 3.531c-6.732.561-11.042 7.427-8.621 13.734 2.274 5.925 9.37 8.327 14.775 5.002m35.505 7.199a6.394 6.394 0 1 1 12.415 3.067 6.394 6.394 0 0 1-12.415-3.067m10.438 72.39a6.394 6.394 0 1 1 12.415 3.067 6.394 6.394 0 0 1-12.415-3.067"/><circle cx="38.458" cy="388.985" r="11.829"/><path d="M197.663 424.36a6.393 6.393 0 1 1 12.414 3.067 6.393 6.393 0 1 1-12.414-3.067M36.52 306.181c1.27-5.142 6.468-8.281 11.611-7.011 5.142 1.27 8.281 6.469 7.011 11.611s-6.469 8.281-11.611 7.011-8.281-6.468-7.011-11.611m60.584-222.18 51.1 27.35-39.192-42.699c-3.888-4.236-10.563-4.256-14.477-.043-4.396 4.732-3.126 12.344 2.569 15.392m77.879-39.21 43.064 37.241-25.526-50.89c-3.195-6.37-11.408-8.243-17.049-3.889-5.672 4.377-5.907 12.853-.489 17.538m80.606-23.918c5.313 14.668 14.03 38.02 14.03 38.02l6.26-39.971c1.132-7.226-5.272-13.374-12.445-11.949-6.321 1.256-10.039 7.841-7.845 13.9m178.373 77.193c-6.225 14.305-15.947 37.256-15.947 37.256l32.024-24.725c5.789-4.47 5.365-13.336-.824-17.233-5.454-3.433-12.682-1.207-15.253 4.702M310.751 65.121l-5.075 42.194 23.573-35.36c3.747-5.621 1.051-13.266-5.394-15.293-6.052-1.904-12.346 2.159-13.104 8.459m-28.435 2.302a6.394 6.394 0 1 1-7.518-5.023 6.39 6.39 0 0 1 7.518 5.023m-93.685 50.23a6.394 6.394 0 1 1-9.81 8.206 6.394 6.394 0 0 1 9.81-8.206M74.386 140.697c1.275 6.407-2.886 12.634-9.293 13.909s-12.634-2.886-13.909-9.293 2.886-12.634 9.293-13.909 12.634 2.886 13.909 9.293m90.08-92.202a6.394 6.394 0 1 1-12.54 2.497 6.394 6.394 0 0 1 12.54-2.497m196.713-12.129c3.237 4.193 2.462 10.216-1.731 13.452s-10.216 2.462-13.452-1.731a9.591 9.591 0 1 1 15.183-11.721"/></g><path d="M172.594 352.053q.385-.137.727-.395l151.302-114.53 97.513-15.91a2.743 2.743 0 1 0-.883-5.415l-98.184 16.02c-.442.074-.858.25-1.214.52L170.01 347.285a2.743 2.743 0 0 0 2.584 4.768" style="fill:#bfbfbf;stroke:#263238;stroke-linecap:round;stroke-linejoin:round;stroke-miterlimit:10"/><path d="M334.471 341.288c.597-.215.983-.824.893-1.477l-13.756-120.975a9.68 9.68 0 0 1 4.306-9.406l8.852-5.742a1.371 1.371 0 1 0-1.493-2.301l-8.852 5.742a12.43 12.43 0 0 0-5.531 12.081l13.756 120.975a1.372 1.372 0 0 0 1.825 1.103" style="fill:#bfbfbf;stroke:#263238;stroke-linecap:round;stroke-linejoin:round;stroke-miterlimit:10"/><path d="M192.198 371.856q.213-.077.398-.225l132.783-103.902 98.595-11.354a1.371 1.371 0 0 0-.192-2.736l-99.026 11.384a1.37 1.37 0 0 0-.767.302L190.87 369.499a1.37 1.37 0 0 0 1.328 2.357" style="fill:#bfbfbf;stroke:#263238;stroke-linecap:round;stroke-linejoin:round;stroke-miterlimit:10"/><path d="M215.381 400.397c.139-.05.274-.124.396-.222l114.235-95.06 97.634-3.954a1.371 1.371 0 0 0-.192-2.736l-98.063 3.984c-.279.02-.547.125-.765.3l-114.57 95.329a1.372 1.372 0 0 0 1.325 2.359" style="fill:#bfbfbf;stroke:#263238;stroke-linecap:round;stroke-linejoin:round;stroke-miterlimit:10"/><path d="m393.55 225.966 2.709-.442 11.967 112.069a1.37 1.37 0 0 1-1.196 1.526 1.37 1.37 0 0 1-1.527-1.195zm-29.511 4.835 2.709-.442 9.559 107.889a1.373 1.373 0 0 1-1.189 1.532 1.37 1.37 0 0 1-1.532-1.19zm-24.889 4.037 2.709-.442 9.278 105.036a1.374 1.374 0 0 1-1.189 1.532 1.37 1.37 0 0 1-1.532-1.19zm-110.065 74.609.001.002 47.056 75.999a1.373 1.373 0 0 1-.677 2.052 1.37 1.37 0 0 1-1.605-.53l-46.97-75.86zm22.508-17.038c.14.107.262.241.355.402l41.486 78.628a1.372 1.372 0 0 1-2.376 1.372l-41.486-78.628c-.034-.059-.057-.121-.082-.182zm-48.998 37.09.012.012 53.175 72.367a1.371 1.371 0 0 1-2.185 1.659l-53.175-72.367-.01-.017zm69.241-52.413c.1.104.19.221.257.358l37.651 81.649a1.372 1.372 0 0 1-2.472 1.188l-37.607-81.552zm20.192-15.285 33.705 84.448a1.37 1.37 0 1 1-2.553 1.001l-33.42-83.732z" style="fill:#bfbfbf;stroke:#263238;stroke-linecap:round;stroke-linejoin:round;stroke-miterlimit:10"/><path d="M235.283 418.979q.266-.096.503-.278l97.804-76.05 95.091-3.069a1.828 1.828 0 1 0-.118-3.654l-95.685 3.087a1.8 1.8 0 0 0-1.063.384l-98.273 76.415a1.828 1.828 0 0 0 1.741 3.165" style="fill:#bfbfbf;stroke:#263238;stroke-linecap:round;stroke-linejoin:round;stroke-miterlimit:10"/><path d="M300.75 421.97q.264-.094.497-.274l106.557-81.759c.8-.616.948-1.764.331-2.564a1.826 1.826 0 0 0-2.565-.33l-106.557 81.759a1.827 1.827 0 0 0-.331 2.564c.498.644 1.34.866 2.068.604m-25.699-.697q.28-.1.527-.297l100.164-80.599a1.828 1.828 0 1 0-2.292-2.849l-100.165 80.6a1.83 1.83 0 0 0 1.766 3.145m-21.933-1.834c.182-.066.358-.162.518-.29l97.377-77.428a1.828 1.828 0 1 0-2.277-2.863l-97.377 77.428a1.828 1.828 0 0 0 1.759 3.153" style="fill:#bfbfbf;stroke:#263238;stroke-linecap:round;stroke-linejoin:round;stroke-miterlimit:10"/><path d="M367.86 472.367c-1.162 6.53 2.347 12.617 7.838 13.594 5.491.978 10.885-3.524 12.048-10.055 1.162-6.53-2.347-12.617-7.838-13.594-5.492-.977-10.886 3.524-12.048 10.055" style="fill:#263238;stroke:#263238;stroke-linecap:round;stroke-linejoin:round;stroke-miterlimit:10"/><path d="M372.392 474.152c-.706 3.967 1.426 7.664 4.762 8.258s6.612-2.141 7.319-6.108-1.426-7.664-4.762-8.258c-3.337-.593-6.613 2.141-7.319 6.108" style="fill:#fff;stroke:#263238;stroke-linecap:round;stroke-linejoin:round;stroke-miterlimit:10"/><path d="m373.246 457.984 8.495 13.961a4.11 4.11 0 0 1-.227 4.605h0a4.11 4.11 0 0 1-5.223 1.149l-16.311-8.752z" style="fill:#fff;stroke:#263238;stroke-linecap:round;stroke-linejoin:round;stroke-miterlimit:10"/><ellipse cx="310.566" cy="468.437" rx="12.01" ry="10.099" style="fill:#263238;stroke:#263238;stroke-linecap:round;stroke-linejoin:round;stroke-miterlimit:10" transform="rotate(-79.909 310.564 468.449)"/><path d="M305.154 468.453c-.706 3.967 1.426 7.664 4.762 8.258s6.612-2.141 7.319-6.108-1.426-7.664-4.762-8.258-6.613 2.141-7.319 6.108" style="fill:#fff;stroke:#263238;stroke-linecap:round;stroke-linejoin:round;stroke-miterlimit:10"/><path d="m306.008 452.285 8.495 13.961a4.11 4.11 0 0 1-.227 4.605h0a4.11 4.11 0 0 1-5.223 1.149l-16.311-8.752z" style="fill:#fff;stroke:#263238;stroke-linecap:round;stroke-linejoin:round;stroke-miterlimit:10"/><ellipse cx="379.574" cy="417.295" rx="12.01" ry="10.099" style="fill:#263238;stroke:#263238;stroke-linecap:round;stroke-linejoin:round;stroke-miterlimit:10" transform="rotate(-79.909 379.568 417.306)"/><path d="M374.163 417.31c-.706 3.967 1.426 7.664 4.762 8.258s6.613-2.141 7.319-6.108-1.426-7.664-4.762-8.258-6.613 2.141-7.319 6.108" style="fill:#fff;stroke:#263238;stroke-linecap:round;stroke-linejoin:round;stroke-miterlimit:10"/><path d="m375.017 401.142 8.495 13.961a4.11 4.11 0 0 1-.227 4.605h0a4.11 4.11 0 0 1-5.224 1.149l-16.311-8.752z" style="fill:#fff;stroke:#263238;stroke-linecap:round;stroke-linejoin:round;stroke-miterlimit:10"/><ellipse cx="448.273" cy="418.483" rx="12.01" ry="10.099" style="fill:#263238;stroke:#263238;stroke-linecap:round;stroke-linejoin:round;stroke-miterlimit:10" transform="rotate(-79.909 448.273 418.495)"/><path d="M442.862 418.498c-.706 3.967 1.426 7.664 4.762 8.258s6.612-2.141 7.319-6.108-1.426-7.664-4.762-8.258c-3.337-.593-6.613 2.141-7.319 6.108" style="fill:#fff;stroke:#263238;stroke-linecap:round;stroke-linejoin:round;stroke-miterlimit:10"/><path d="m443.716 402.33 8.495 13.961a4.11 4.11 0 0 1-.227 4.605h0a4.11 4.11 0 0 1-5.224 1.149l-16.311-8.752z" style="fill:#fff;stroke:#263238;stroke-linecap:round;stroke-linejoin:round;stroke-miterlimit:10"/><path d="M352.335 475.422a18.7 18.7 0 0 0 5.156-2.846l93.233-72.643a11.38 11.38 0 0 0 4.367-8.304 11.42 11.42 0 0 0-4.131-9.467l-36.007-29.996a2.74 2.74 0 0 0-3.363-.095l-65.583 48.167a2.743 2.743 0 0 0 3.24 4.427l29.182-21.359q.051.094.11.184l.566.87a7.55 7.55 0 0 1 .688 6.887 7.53 7.53 0 0 1-2.518 3.276l-91.127 67.541a4.58 4.58 0 0 0-1.703 4.911 4.58 4.58 0 0 0 3.95 3.375l55.615 6.055a18.6 18.6 0 0 0 8.325-.983m60.183-117.944 34.956 28.92a5.9 5.9 0 0 1-.122 9.207l-93.234 72.644a13.08 13.08 0 0 1-9.514 2.701l-53.391-5.813 89.329-66.208a13 13 0 0 0 4.351-5.663c1.553-3.917 1.238-8.627-1.059-12.16l-.565-.869a3 3 0 0 0-.322-.406z" style="fill:#fff;stroke:#263238;stroke-linecap:round;stroke-linejoin:round;stroke-miterlimit:10"/><path d="m379.106 384.358-.676-1.054 4.517-3.473.887 1.275c1.026 1.578 1.531 3.603 1.806 5.417l-5.828 4.671a7.55 7.55 0 0 0-.706-6.836m54.496-193.207c2.594-.934 4.132-3.778 3.5-6.729-.693-3.236-3.735-5.374-6.794-4.775l-92.725 18.161c-3.059.601-4.977 3.709-4.283 6.945.693 3.236 3.735 5.374 6.794 4.775l92.725-18.161q.406-.08.783-.216" style="fill:#263238;stroke:#263238;stroke-linecap:round;stroke-linejoin:round;stroke-miterlimit:10"/><path d="M418.793 223.332c.578-.208.963-.789.899-1.428l-1.876-18.597a9.59 9.59 0 0 1 4.424-9.108l12.507-7.947a1.372 1.372 0 0 0-1.471-2.315l-12.507 7.946a12.32 12.32 0 0 0-5.682 11.699l1.876 18.597a1.37 1.37 0 0 0 1.83 1.153" style="fill:#fff;stroke:#263238;stroke-linecap:round;stroke-linejoin:round;stroke-miterlimit:10"/><path d="M320.257 423.034q.195-.071.363-.196l110.27-83.359c.382-.289.585-.756.537-1.232l-11.736-116.344a1.371 1.371 0 0 0-2.729.275l11.658 115.577-109.267 82.6-84.691-3.098-61.98-68.705a1.372 1.372 0 0 0-2.037 1.838l62.369 69.135c.249.275.598.438.968.451l85.758 3.137q.27.01.517-.079" style="fill:#fff;stroke:#263238;stroke-linecap:round;stroke-linejoin:round;stroke-miterlimit:10"/><path d="M320.256 423.035q.092-.033.182-.081a1.37 1.37 0 0 0 .566-1.855l-42.978-80.752a1.365 1.365 0 0 0-1.855-.566 1.37 1.37 0 0 0-.566 1.855l42.978 80.752a1.37 1.37 0 0 0 1.673.647m-21.99-.973a1.37 1.37 0 0 0 .699-2.018l-47.344-75.703a1.37 1.37 0 1 0-2.326 1.453l47.344 75.703c.35.559 1.033.779 1.627.565m-24.508-.453a1.373 1.373 0 0 0 .673-2.058l-48.877-72.446a1.372 1.372 0 0 0-2.274 1.534l48.877 72.446a1.37 1.37 0 0 0 1.601.524m-21.894-1.78a1.372 1.372 0 0 0 .635-2.112L199.64 347.09a1.371 1.371 0 0 0-2.196 1.644l52.859 70.626a1.37 1.37 0 0 0 1.561.469m86.991-12.764.072-.028a1.374 1.374 0 0 0 .728-1.798l-36.068-85.171c-.296-.697-1.082-1.048-1.798-.728a1.37 1.37 0 0 0-.728 1.797l36.068 85.172a1.37 1.37 0 0 0 1.726.756m17.873-12.615a1.37 1.37 0 0 0 .834-1.73l-31.169-91.959a1.37 1.37 0 0 0-1.739-.859c-.698.202-1.101 1.022-.858 1.738l31.169 91.959a1.37 1.37 0 0 0 1.739.859zm17.379-13.985a1.37 1.37 0 0 0 .845-1.693l-29.046-94.655a1.373 1.373 0 0 0-1.714-.909c-.737.211-1.131.989-.909 1.713l29.047 94.655a1.37 1.37 0 0 0 1.777.889m15.821-11.878a1.37 1.37 0 0 0 .862-1.632l-25.462-98.651a1.372 1.372 0 0 0-2.656.686l25.462 98.65a1.37 1.37 0 0 0 1.794.947m14.82-10.358a1.37 1.37 0 0 0 .881-1.544l-20.001-106.026a1.37 1.37 0 0 0-1.602-1.093 1.37 1.37 0 0 0-1.094 1.602l20.002 106.026a1.373 1.373 0 0 0 1.814 1.035m13.425-11.015c.586-.211.972-.803.897-1.449l-12.995-111.253a1.372 1.372 0 0 0-2.725.318l12.995 111.253a1.37 1.37 0 0 0 1.828 1.131" style="fill:#fff;stroke:#263238;stroke-linecap:round;stroke-linejoin:round;stroke-miterlimit:10"/><path d="M291.626 370.351q.058-.021.103-.042c4.38-1.967 120.688-101.84 133.935-113.222a1.372 1.372 0 0 0-1.787-2.081c-35.659 30.636-129.118 110.624-133.294 112.811l-.02.007c-3.724 1.34-62.265 3.057-100.771 3.881a1.372 1.372 0 0 0 .059 2.742c16.134-.344 96.374-2.152 101.775-4.096" style="fill:#fff;stroke:#263238;stroke-linecap:round;stroke-linejoin:round;stroke-miterlimit:10"/><path d="M305.89 399.223c1.741-.627 88.07-70.403 125.106-100.373a1.371 1.371 0 1 0-1.726-2.132c-41.228 33.363-119.439 96.505-124.328 99.9-4.312.368-57.95-.14-93.592-.58a1.37 1.37 0 1 0-.033 2.743c34.594.426 92.882 1.051 94.573.442m-35.084-52.381c.297-.107.575-.265.821-.469l151.817-125.751a2.743 2.743 0 1 0-3.499-4.225L268.826 341.571l-97.306 5.161a2.742 2.742 0 0 0 .291 5.478l98.212-5.21a2.7 2.7 0 0 0 .783-.158" style="fill:#fff;stroke:#263238;stroke-linecap:round;stroke-linejoin:round;stroke-miterlimit:10"/><path d="M320.106 425.727c.297-.107.575-.265.821-.469l114.877-87.097a2.743 2.743 0 1 0-3.499-4.225l-114.179 86.518-88.614-5.724a2.742 2.742 0 0 0 .291 5.478l89.52 5.676c.268-.013.532-.067.783-.157M111.328 41.912l-33.65 20.492 61.28 9.622 30.893-20.764z" style="fill:#fff;stroke:#263238;stroke-linecap:round;stroke-linejoin:round;stroke-miterlimit:10"/><path d="m94.614 52.194 58.175 10.622 2.941-2.124-57.848-10.295z" style="fill:#92e3a9;stroke:#263238;stroke-linecap:round;stroke-linejoin:round;stroke-miterlimit:10"/><path d="m138.958 72.026 5.064 56.722 29.88-24.816-4.051-52.67z" style="fill:#fff;stroke:#263238;stroke-linecap:round;stroke-linejoin:round;stroke-miterlimit:10"/><path d="m155.73 60.692 6.44 52.657-3.107 3.106-6.274-53.639z" style="fill:#92e3a9;stroke:#263238;stroke-linecap:round;stroke-linejoin:round;stroke-miterlimit:10"/><path d="m77.678 62.404 6.078 55.202 60.266 11.142-5.064-56.722z" style="fill:#fff;stroke:#263238;stroke-linecap:round;stroke-linejoin:round;stroke-miterlimit:10"/><path d="m133.632 45.584-29.557 21.012 3.56.712 29.216-21.17z" style="fill:#92e3a9;stroke:#263238;stroke-linecap:round;stroke-linejoin:round;stroke-miterlimit:10"/><path d="m104.075 66.596 5.414 55.677 3.412.682-5.266-55.647zm19.305-12.093s-18.264.497-23.874 1.354.621 4.279 3.345 5.717 3.764 1.116 8.559-1.242 11.97-5.829 11.97-5.829" style="fill:#92e3a9;stroke:#263238;stroke-linecap:round;stroke-linejoin:round;stroke-miterlimit:10"/><path d="M121.622 53.663c-1.064.638.847 3.054 1.192 3.498a30.4 30.4 0 0 0 5.985 5.807c2.73 1.988 5.896 3.356 8.936 4.788l1.093.513c.12.056.669.299.041.017-.69-.309.103.059.307.166q1.166.607 2.27 1.32a24.4 24.4 0 0 1 3.574 2.807c2.118 2.022 3.962 4.52 4.846 7.337 1.932 6.158-.735 12.608-3.061 18.258-1.164 2.829-2.45 5.603-3.729 8.381-.425.923-.857 1.846-1.226 2.793-.191.49-.44 1.047-.421 1.584.006.171 1.563.768 1.75.857.18.086 1.761.662 1.767.822-.041-1.182.821-2.563 1.29-3.596 1.042-2.295 2.122-4.571 3.124-6.884 1.375-3.172 2.714-6.405 3.681-9.728.801-2.754 1.249-5.653.855-8.515-.816-5.918-5.479-10.559-10.483-13.372-1.468-.825-3.002-1.538-4.521-2.263q-1.223-.582-2.448-1.156c-.023-.011-.533-.26-.197-.093.408.203-.351-.185-.475-.25a35 35 0 0 1-1.442-.797c-2.66-1.562-4.977-3.679-7.031-5.97-.904-1.008-2.193-2.356-2.385-3.778-.036-.266-.047-.703.227-.868-.141.085-1.555-.764-1.75-.857-.228-.107-1.554-.95-1.769-.821" style="fill:#92e3a9;stroke:#263238;stroke-linecap:round;stroke-linejoin:round;stroke-miterlimit:10"/><path d="M120.179 55.864s-12.331 3.033-13.479 4.03-1.131 2.584-.025 2.547 13.504-6.577 13.504-6.577" style="fill:#263238;stroke:#263238;stroke-linecap:round;stroke-linejoin:round;stroke-miterlimit:10"/><path d="M123.757 53.641s1.93-.766 4.982-3.266 5.649-4.284 7.326-3.787 6.165 3.409 5.564 4.204-1.718.463-4.911.976-11.396 2.337-11.396 2.337z" style="fill:#92e3a9;stroke:#263238;stroke-linecap:round;stroke-linejoin:round;stroke-miterlimit:10"/><path d="M141.629 50.792s-.273-1.54-2.729-1.052-13.578 4.366-13.578 4.366z" style="fill:#263238;stroke:#263238;stroke-linecap:round;stroke-linejoin:round;stroke-miterlimit:10"/><path d="M121.85 56.668a90 90 0 0 0-3.825-10.935c-1.209-2.844-2.402-5.811-4.087-8.417-1.407-2.176-3.281-3.492-5.99-3.373-3.593.157-6.915 1.985-10.495 2.339-2.5.247-5.006-.374-7.462-.748-2.832-.431-5.746-.614-8.509.288-3.344 1.091-5.934 3.596-7.958 6.392-4.597 6.35-6.995 15.133-14.688 18.581-.026.012 1.567 3.569 1.595 3.556 11.914-5.341 11.95-25.71 27.133-25.628 2.574.014 5.086.585 7.623.942 2.927.412 5.586.014 8.423-.803 2.869-.826 6.166-2.156 9.08-.782 1.911.901 3.028 2.937 3.959 4.736q.237.462.464.931c.271.552.5 1.326-.569-1.28l.265.63q.418 1.014.805 2.041a98 98 0 0 1 1.391 3.939 92 92 0 0 1 1.249 4.034c.349 1.241 1.25 2.324 1.596 3.557" style="fill:#92e3a9;stroke:#263238;stroke-linecap:round;stroke-linejoin:round;stroke-miterlimit:10"/><path d="M119.025 54.427s1.509 1.458 2.246 1.433 5.037-.976 4.052-1.755-4.538-1.102-6.298.322m149.512-3.305-69.173-18.721 34.078 35.884 71.519 16.304z" style="fill:#92e3a9;stroke:#263238;stroke-linecap:round;stroke-linejoin:round;stroke-miterlimit:10"/><path d="m279.338 60.701-67.632-15.204 10.617 11.01 68.764 15.883z" style="fill:#8c8c8c;stroke:#263238;stroke-linecap:round;stroke-linejoin:round;stroke-miterlimit:10"/><path d="m231.674 40.875 31.17 34.099 16.705 3.961-31.859-33.066z" style="fill:#8c8c8c;stroke:#263238;stroke-linecap:round;stroke-linejoin:round;stroke-miterlimit:10"/><path d="m233.442 68.285-20.556 47.858-31.064-39.452 17.542-44.29z" style="fill:#92e3a9;stroke:#263238;stroke-linecap:round;stroke-linejoin:round;stroke-miterlimit:10"/><path d="m211.706 45.497-19.005 45.088 9.306 11.796 20.316-45.874z" style="fill:#8c8c8c;stroke:#263238;stroke-linecap:round;stroke-linejoin:round;stroke-miterlimit:10"/><path d="m212.886 116.143 72.742 13.56 19.333-45.114-71.519-16.304z" style="fill:#92e3a9;stroke:#263238;stroke-linecap:round;stroke-linejoin:round;stroke-miterlimit:10"/><path d="M248.206 51.553s-3.272-4.822-5.339-14.983c-2.066-10.161-1.722-14.81-8.611-16.188-2.418-.484-8.611 5.683-12.572 12.399s-.172 10.333 6.372 14.294 18.599 8.266 18.599 8.266zm4.546-.537s12.35-4.722 21.795-6.175c9.444-1.453 11.261-1.09 11.261-1.09s4.359 9.081 3.269 15.62c-.195 1.168-.621 2.277-1.19 3.313-2.923 5.318-9.49 7.46-15.134 5.229l-23.342-12.399z" style="fill:#8c8c8c;stroke:#263238;stroke-linecap:round;stroke-linejoin:round;stroke-miterlimit:10"/><path d="M285.808 43.751s-1.816-.363-11.261 1.09-21.795 6.175-21.795 6.175 23.353-2.564 27.658-4.286c4.306-1.722 5.398-2.979 5.398-2.979" style="fill:#263238;stroke:#263238;stroke-linecap:round;stroke-linejoin:round;stroke-miterlimit:10"/><path d="M248.393 58.281s-.544-5.359 2.741-3.285c3.272 2.067 21.116 1.485 24.626 3.444 7.405 4.133 14.81 13.777 15.327 13.949s-2.583.344-15.499 0c-12.916-.345-17.566-4.65-20.149-7.577s-7.046-6.531-7.046-6.531" style="fill:#8c8c8c;stroke:#263238;stroke-linecap:round;stroke-linejoin:round;stroke-miterlimit:10"/><path d="M249.412 55.514s2.928 2.411 7.405 4.478" style="fill:none;stroke:#263238;stroke-linecap:round;stroke-linejoin:round;stroke-miterlimit:10"/><path d="M252.752 51.016s-5.085-.363-6.902 2.18c-1.816 2.543 1.09 4.722 2.543 5.085 1.453.364 4.359-7.265 4.359-7.265" style="fill:#8c8c8c;stroke:#263238;stroke-linecap:round;stroke-linejoin:round;stroke-miterlimit:10"/><path d="M217.897 48.797s-6.2-1.55-8.955.689-4.133 10.333-4.133 10.333 7.233-5.855 10.677-7.405 6.027-1.722 6.027-1.722z" style="fill:#545454;stroke:#263238;stroke-linecap:round;stroke-linejoin:round;stroke-miterlimit:10"/><path d="M245.85 53.196s-5.738.768-12.11-.782-15.844-3.617-15.844-3.617 7.233 4.65 11.883 7.405 6.716 2.928 10.677 2.411 7.937-.332 7.937-.332 1.129-2.925-2.543-5.085m16.994 21.778-19.473 46.745 17.244 3.285 18.934-46.069z" style="fill:#8c8c8c;stroke:#263238;stroke-linecap:round;stroke-linejoin:round;stroke-miterlimit:10"/><path d="m174.604 150.124 51.161 53.475-57.334-.488-61.999-60.122zm-6.173 52.987-9.707 16.191-59.692-62.271 7.4-14.042z" style="fill:#92e3a9;stroke:#263238;stroke-linecap:round;stroke-linejoin:round;stroke-miterlimit:10"/><path d="m158.724 219.302 59.079-1.1 7.962-14.603-57.334-.488z" style="fill:#92e3a9;stroke:#263238;stroke-linecap:round;stroke-linejoin:round;stroke-miterlimit:10"/><path d="m199.62 176.07-62.038-3.031-6.392-6.071 63.323 3.996z" style="fill:#fff;stroke:#263238;stroke-linecap:round;stroke-linejoin:round;stroke-miterlimit:10"/><path d="m137.582 173.039-8.57 15.379-5.843-6.172 8.021-15.278zm14.37-25.197 50.018 55.319-7.964.064-50.582-56.287z" style="fill:#fff;stroke:#263238;stroke-linecap:round;stroke-linejoin:round;stroke-miterlimit:10"/><path d="m201.97 203.161-7.578 15.543-8.029.064 7.643-15.543z" style="fill:#fff;stroke:#263238;stroke-linecap:round;stroke-linejoin:round;stroke-miterlimit:10"/><path d="M83.817 222.401c.521-.311 1.216-.456 2.051-.479a8.7 8.7 0 0 0-.12 1.859c-.486.008-.842.087-1.059.216-1.923 1.116.107 11.876 6.457 27.969.409 1.065.849 2.134 1.302 3.237l-1.581 1.366c-.37-.907-.809-1.992-1.295-3.228-1.174-3.02-2.631-6.857-3.926-10.779-5.218-15.76-3.727-19.05-1.829-20.161m31.952 11.928-1.584 1.253c-1.145-.642-1.577-.879-2.654-1.473-11.885-6.452-19.694-9.358-23.764-10.116-.057-.822-.022-1.472.112-1.925 6.571.993 17.935 6.714 25.211 10.665 1.267.688 1.71 1.047 2.679 1.596" style="fill:#92e3a9;stroke:#263238;stroke-linecap:round;stroke-linejoin:round;stroke-miterlimit:10"/><path d="m79.444 266.703.613-.554 46.044-41.564 3.381 3.989-38.094 33.285z" style="fill:#8c8c8c;stroke:#263238;stroke-linecap:round;stroke-linejoin:round;stroke-miterlimit:10"/><path d="m123.203 233.249 2.898-8.664 3.381 3.989z" style="fill:#595959;stroke:#263238;stroke-linecap:round;stroke-linejoin:round;stroke-miterlimit:10"/><path d="m86.447 265.244 55.789 84.803 67.054-59.688-78.099-63.962z" style="fill:#263238;stroke:#263238;stroke-linecap:round;stroke-linejoin:round;stroke-miterlimit:10"/><path d="m122.035 234.334-1.59 1.373a414 414 0 0 0-3.575-2.162c-17.714-10.476-26.855-13.183-28.524-12.239-.217.128-.383.375-.469.761-.134.453-.169 1.103-.112 1.925.277 4.539 3.192 14.368 8.817 27.534.479 1.154.997 2.321 1.527 3.522l-1.574 1.375c-.434-.987-.95-2.17-1.52-3.513-1.385-3.287-3.11-7.462-4.672-11.722-3.345-9.112-4.519-14.345-4.597-17.407a8.7 8.7 0 0 1 .12-1.859c.247-1.352.838-1.994 1.487-2.362 4.34-2.449 21.184 6.762 31.073 12.609 1.355.796 2.569 1.527 3.609 2.165" style="fill:#92e3a9;stroke:#263238;stroke-linecap:round;stroke-linejoin:round;stroke-miterlimit:10"/><path d="m142.236 350.047-14.054 2.184-48.738-85.528 14.498-7.866-7.495 6.407z" style="fill:#595959;stroke:#263238;stroke-linecap:round;stroke-linejoin:round;stroke-miterlimit:10"/><path d="m128.182 352.231 4.069-16.304" style="fill:none;stroke:#263238;stroke-linecap:round;stroke-linejoin:round;stroke-miterlimit:10"/><path d="M240.202 208.607s-2.565-42.176-1.14-48.446l8.549 45.881zm-1.14-48.446s1.425-9.119 6.554-9.689 9.404 3.99 9.974 6.554.855 6.27.855 6.27-5.415-8.834-9.974-7.409-6.269 9.119-6.269 9.119z" style="fill:#263238;stroke:#263238;stroke-linecap:round;stroke-linejoin:round;stroke-miterlimit:10"/><path d="m255.59 157.026 3.42 45.026 7.694-3.42s-5.984-32.772-11.114-41.606" style="fill:#263238;stroke:#263238;stroke-linecap:round;stroke-linejoin:round;stroke-miterlimit:10"/><path d="m229.43 209.292 43.576-15.742 2.054 18.936-18.024 9.127z" style="fill:#fff;stroke:#263238;stroke-linecap:round;stroke-linejoin:round;stroke-miterlimit:10"/><path d="m273.006 193.55 28.975 2.738-27.834 10.267z" style="fill:#fff;stroke:#263238;stroke-linecap:round;stroke-linejoin:round;stroke-miterlimit:10"/><path d="M261.103 192.669 249.3 178.67s-1.098 24.156-1.098 24.979 12.901-6.862 12.901-6.862z" style="fill:#92e3a9"/><path d="m233.927 211.335-4.666-25.803 26.077 12.902 10.157 12.901-20.862 8.235z" style="fill:#92e3a9"/><path d="m250.123 205.296 8.235-22.234 24.59-11.502-3.252 40.032-30.946.566z" style="fill:#92e3a9"/><path d="m275.06 212.486.323-1.843 4.934-28.13 22.509 4.117-4.941 15.097" style="fill:#92e3a9"/><path d="m229.43 209.292-5.603 115.669 16.883-1.689 16.321 6.754-.563-117.057z" style="fill:#fff;stroke:#263238;stroke-linecap:round;stroke-linejoin:round;stroke-miterlimit:10"/><path d="M236.006 221.121c1.516 0 2.746 3.512 2.746 7.845s-1.229 7.845-2.746 7.845-2.746-3.512-2.746-7.845 1.23-7.845 2.746-7.845m10.394 32.582c0 4.333 1.229 7.845 2.746 7.845s2.746-3.512 2.746-7.845-1.229-7.845-2.746-7.845-2.746 3.513-2.746 7.845m-13.139 25.076c0 4.332 1.229 7.845 2.746 7.845s2.746-3.512 2.746-7.845-1.229-7.845-2.746-7.845c-1.517.001-2.746 3.513-2.746 7.845m13.139 24.738c0 4.332 1.229 7.845 2.746 7.845s2.746-3.512 2.746-7.845-1.229-7.845-2.746-7.845-2.746 3.512-2.746 7.845" style="fill:#92e3a9"/><path d="m242.558 248.147.878-35.709m-2.726 110.834 1.712-69.595" style="fill:none;stroke:#263238;stroke-linecap:round;stroke-linejoin:round;stroke-miterlimit:10"/><path d="m257.031 330.026 65.281-35.455-20.331-98.283-45.513 16.681z" style="fill:#fff;stroke:#263238;stroke-linecap:round;stroke-linejoin:round;stroke-miterlimit:10"/><path d="M268.562 241.909c0 4.333-1.229 7.845-2.746 7.845s-2.746-3.512-2.746-7.845c0-4.332 1.229-7.845 2.746-7.845s2.746 3.513 2.746 7.845m-.393 41.969c0 4.332-1.229 7.845-2.746 7.845s-2.746-3.512-2.746-7.845 1.229-7.845 2.746-7.845c1.517.001 2.746 3.513 2.746 7.845" style="fill:#92e3a9"/><ellipse cx="297.058" cy="224.803" rx="2.746" ry="7.845" style="fill:#92e3a9"/><ellipse cx="299.838" cy="267.383" rx="2.746" ry="7.845" style="fill:#92e3a9"/><ellipse cx="279.696" cy="219.436" rx="2.746" ry="7.845" style="fill:#92e3a9"/><path d="M284.643 259.952c0 4.332-1.229 7.845-2.746 7.845s-2.746-3.512-2.746-7.845c0-4.332 1.229-7.845 2.746-7.845s2.746 3.513 2.746 7.845" style="fill:#92e3a9"/><ellipse cx="314.845" cy="287.016" rx="2.746" ry="7.845" style="fill:#92e3a9"/><ellipse cx="264.617" cy="315.271" rx="2.746" ry="7.845" style="fill:#92e3a9"/><ellipse cx="307.377" cy="244.769" rx="2.746" ry="7.845" style="fill:#92e3a9"/><path d="M287.781 301.529c0 4.333-1.229 7.845-2.746 7.845s-2.746-3.512-2.746-7.845c0-4.332 1.229-7.845 2.746-7.845s2.746 3.512 2.746 7.845" style="fill:#92e3a9"/><path d="M266.704 216.871s-2.565-42.176-1.14-48.446l8.549 45.881zm-1.14-48.446s1.425-9.119 6.555-9.689c5.129-.57 9.404 3.99 9.974 6.554s.855 6.27.855 6.27-5.414-8.834-9.974-7.409-6.27 9.119-6.27 9.119z" style="fill:#263238;stroke:#263238;stroke-linecap:round;stroke-linejoin:round;stroke-miterlimit:10"/><path d="m282.093 165.29 3.42 45.026 7.694-3.42c0 .001-5.985-32.772-11.114-41.606" style="fill:#263238;stroke:#263238;stroke-linecap:round;stroke-linejoin:round;stroke-miterlimit:10"/><path d="m386.459 176.006-70.159-1.794-24.994-12.248 59.021.292z" style="fill:#92e3a9;stroke:#263238;stroke-linecap:round;stroke-linejoin:round;stroke-miterlimit:10"/><path d="m403.799 63.385-53.472 98.871 36.132 13.75 25.55-109.347-5.878 3.197z" style="fill:#92e3a9;stroke:#263238;stroke-linecap:round;stroke-linejoin:round;stroke-miterlimit:10"/><path d="m406.131 69.856-37.159 100.077" style="fill:none;stroke:#263238;stroke-linecap:round;stroke-linejoin:round;stroke-miterlimit:10"/><path d="m403.799 63.385-58.527 14.836-53.966 83.743 59.021.292z" style="fill:#92e3a9;stroke:#263238;stroke-linecap:round;stroke-linejoin:round;stroke-miterlimit:10"/><path d="M378.822 73.415s13.694-21.657 6.384-26.162-25.058 22.207-25.864 29.784m30.028-9.492s8.288-13.355 13.882-10.834 1.451 10.372 1.451 10.372" style="fill:none;stroke:#263238;stroke-width:2;stroke-linecap:round;stroke-linejoin:round;stroke-miterlimit:10"/></svg>